<svg version="1.2" xmlns="http://www.w3.org/2000/svg" viewBox="0 0 274 230" width="274" height="230"><defs><filter x="-50%" y="-50%" width="200%" height="200%" id="f1" ><feDropShadow dx="-1.2246467991473532e-16" dy="2" stdDeviation="0.4166666666666667" flood-color="#000000" flood-opacity=".2"/></filter></defs><style>.a{filter:url(#f1);fill:#fff}</style><path fill-rule="evenodd" class="a" d="m46.3 0h181.4c15 0 27.2 12.2 27.2 27.2v118.1c0 3.2-0.6 6.2-1.6 9.1h1.6v18.1h-27.2v-145.3h-181.4v145.3h-27.2v-18.1h1.6c-1-2.9-1.6-5.9-1.6-9.1v-118.1c0-15 12.2-27.2 27.2-27.2zm-27.2 190.7h235.8c10 0 18.1 8.1 18.1 18.1 0 10.1-17.2 18.2-27.2 18.2h-217.6c-10 0-27.2-8.1-27.2-18.2 0-10 8.1-18.1 18.1-18.1zm81.6 22.7c0 2.5 4.1 4.5 9.1 4.5h54.4c5 0 9.1-2 9.1-4.5 0-2.5-4.1-4.6-9.1-4.6h-54.4c-5 0-9.1 2.1-9.1 4.6zm-24.6-106.9l12.8-12.8c3.5-3.6 9.2-3.6 12.8 0l16.7 16.8 53.9-54.2c3.5-3.6 9.3-3.6 12.8 0l12.7 12.8c3.6 3.6 3.6 9.3 0 12.8l-70.2 70.7c-3 3-7.6 3.4-11.1 1.3-2.9 0.7-6.2-0.1-8.5-2.4l-31.9-32.1c-3.5-3.6-3.5-9.3 0-12.9z"/></svg>